<svg width="1024" height="1024" viewBox="0 0 1024 1024" fill="none" xmlns="http://www.w3.org/2000/svg">
<g clip-path="url(#clip0_215_340)">
<rect width="1024" height="1024" rx="512" fill="black"/>
<path d="M759.966 811.203C778.08 833.06 810.742 836.283 830.339 815.745C875.805 768.093 910.152 710.671 930.584 647.599C951.016 584.527 956.863 517.873 947.973 452.613C944.141 424.485 915.794 407.944 888.304 415.028V415.028C860.814 422.112 844.693 450.167 847.52 478.414C852.143 524.592 847.201 571.418 832.785 615.918C818.37 660.418 794.916 701.247 764.095 735.943C745.242 757.167 741.851 789.346 759.966 811.203V811.203Z" fill="white"/>
<path d="M298.365 836.61C282.759 860.324 289.226 892.5 314.597 905.236C373.459 934.784 438.414 950.842 504.704 951.94C570.994 953.039 636.446 939.142 696.255 911.561C722.034 899.673 729.563 867.728 714.751 843.511V843.511C699.94 819.293 668.397 812.079 642.211 823.041C599.403 840.963 553.178 849.927 506.408 849.152C459.638 848.377 413.735 837.886 371.544 818.556C345.736 806.732 313.971 812.897 298.365 836.61V836.61Z" fill="white"/>
<path d="M135.52 415.688C108.018 408.652 79.6997 425.243 75.9177 453.378C67.1432 518.653 73.1079 585.297 93.6511 648.333C114.194 711.369 148.642 768.73 194.193 816.301C213.826 836.806 246.482 833.525 264.558 811.636V811.636C282.634 789.746 279.186 757.573 260.295 736.383C229.413 701.742 205.888 660.953 191.394 616.479C176.9 572.005 171.875 525.187 176.416 479.002C179.193 450.75 163.023 422.723 135.52 415.688V415.688Z" fill="#777777"/>
<path d="M487.255 124.186C485.447 95.8558 460.918 74.0503 432.991 79.1476C368.199 90.9738 306.66 117.241 253.058 156.258C199.455 195.274 155.546 245.762 124.38 303.784C110.946 328.792 124.157 358.836 150.561 369.263V369.263C176.965 379.69 206.498 366.469 220.813 341.954C244.216 301.879 275.738 266.901 313.557 239.373C351.375 211.845 394.349 192.599 439.677 182.645C467.405 176.557 489.062 152.517 487.255 124.186V124.186Z" fill="#777777"/>
<path d="M873.184 368.628C899.569 358.155 912.728 328.088 899.25 303.103C867.981 245.137 823.983 194.726 770.312 155.804C716.64 116.882 655.055 90.7237 590.242 79.0119C562.307 73.9639 537.816 95.8127 536.059 124.146V124.146C534.301 152.48 556.001 176.482 583.739 182.521C629.085 192.395 672.092 211.565 709.96 239.026C747.827 266.487 779.411 301.41 802.884 341.444C817.243 365.933 846.799 379.102 873.184 368.628V368.628Z" fill="white"/>
</g>
<defs>
<clipPath id="clip0_215_340">
<rect width="1024" height="1024" rx="512" fill="white"/>
</clipPath>
</defs>
</svg>
