<svg width="1814" height="327" viewBox="0 0 1814 327" fill="none" xmlns="http://www.w3.org/2000/svg">
<g clip-path="url(#clip0_130_32)">
<rect width="1814" height="327" fill="black"/>
<path d="M401.045 241.425C389.998 241.425 379.893 238.596 370.732 232.937C361.571 227.279 354.229 219.667 348.705 210.102C343.316 200.537 340.622 189.961 340.622 178.375C340.622 166.789 343.316 156.213 348.705 146.648C354.229 137.083 361.571 129.471 370.732 123.812C379.893 118.154 389.998 115.325 401.045 115.325C409.128 115.325 416.605 116.807 423.476 119.771C430.482 122.6 436.477 126.642 441.461 131.896V117.75H466.722V239H441.461V224.854C436.477 229.974 430.482 234.015 423.476 236.979C416.605 239.943 409.128 241.425 401.045 241.425ZM404.682 215.963C411.418 215.963 417.548 214.278 423.072 210.91C428.73 207.542 433.176 203.029 436.409 197.371C439.777 191.712 441.461 185.381 441.461 178.375C441.461 171.504 439.777 165.24 436.409 159.581C433.176 153.788 428.798 149.208 423.274 145.84C417.75 142.472 411.553 140.787 404.682 140.787C397.946 140.787 391.749 142.472 386.091 145.84C380.567 149.208 376.121 153.721 372.753 159.379C369.52 165.037 367.903 171.369 367.903 178.375C367.903 185.246 369.52 191.578 372.753 197.371C376.121 203.029 380.567 207.542 386.091 210.91C391.614 214.278 397.811 215.963 404.682 215.963ZM545.318 242.233C533.328 242.233 522.416 239.404 512.581 233.746C502.746 227.953 494.932 220.206 489.139 210.506C483.346 200.806 480.45 190.096 480.45 178.375C480.45 166.519 483.346 155.809 489.139 146.244C494.932 136.544 502.746 128.865 512.581 123.206C522.416 117.413 533.328 114.517 545.318 114.517C553.806 114.517 561.822 115.999 569.366 118.962C577.045 121.792 583.782 125.833 589.575 131.087L581.693 162.815C578.325 156.752 573.543 151.565 567.345 147.254C561.148 142.808 554.008 140.585 545.925 140.585C538.919 140.585 532.52 142.337 526.727 145.84C521.068 149.208 516.555 153.721 513.187 159.379C509.954 165.037 508.337 171.369 508.337 178.375C508.337 185.246 509.954 191.578 513.187 197.371C516.555 203.029 521.068 207.61 526.727 211.112C532.52 214.481 538.919 216.165 545.925 216.165C554.008 216.165 561.148 214.009 567.345 209.698C573.543 205.387 578.325 200.133 581.693 193.935L589.575 225.662C583.782 230.917 577.045 235.026 569.366 237.99C561.822 240.819 553.806 242.233 545.318 242.233ZM614.417 239V140.787H589.359V117.75H615.023V77.3333H642.304V117.75H669.384V140.787H642.911V239H614.417ZM679.771 239V117.75H708.264V239H679.771ZM694.119 98.1479C689.403 98.1479 685.429 96.5312 682.196 93.2979C678.962 89.9299 677.346 85.9556 677.346 81.375C677.346 76.525 678.962 72.5507 682.196 69.4521C685.564 66.2187 689.538 64.6021 694.119 64.6021C698.969 64.6021 702.943 66.2187 706.042 69.4521C709.275 72.6854 710.892 76.6597 710.892 81.375C710.892 86.0903 709.275 90.0646 706.042 93.2979C702.808 96.5312 698.834 98.1479 694.119 98.1479ZM778.904 245.063L715.046 117.75H746.975L768.8 163.421C770.821 167.462 772.707 171.504 774.458 175.546C776.21 179.453 777.961 184.101 779.712 189.49C781.464 184.101 783.215 179.453 784.966 175.546C786.718 171.504 788.604 167.462 790.625 163.421L812.45 117.75H842.762L778.904 245.063ZM849.449 239V117.75H877.942V239H849.449ZM863.797 98.1479C859.081 98.1479 855.107 96.5312 851.874 93.2979C848.64 89.9299 847.024 85.9556 847.024 81.375C847.024 76.525 848.64 72.5507 851.874 69.4521C855.242 66.2187 859.216 64.6021 863.797 64.6021C868.647 64.6021 872.621 66.2187 875.72 69.4521C878.953 72.6854 880.57 76.6597 880.57 81.375C880.57 86.0903 878.953 90.0646 875.72 93.2979C872.486 96.5312 868.512 98.1479 863.797 98.1479ZM913.419 239V140.787H888.361V117.75H914.026V77.3333H941.307V117.75H968.386V140.787H941.913V239H913.419ZM974.529 299.625L1014.34 219.802L964.021 117.75H995.748L1019.39 166.25C1021.55 170.561 1023.5 174.737 1025.25 178.779C1027 182.686 1028.69 186.997 1030.3 191.712C1031.92 186.997 1033.61 182.686 1035.36 178.779C1037.24 174.737 1039.26 170.561 1041.42 166.25L1065.47 117.75H1095.78L1005.25 299.625H974.529Z" fill="white"/>
<path d="M1102.07 242.144V215.944H1197.17V194.722H1125.91V170.88H1102.07V144.942H1125.91V121.1H1223.9V147.3H1128.53V168.26H1199.79V192.102H1223.9V218.564H1199.79V242.144H1102.07ZM1245.1 242.144V121.1H1319.25V144.942H1340.21V121.1H1390.78V144.942H1414.36V242.144H1388.16V147.3H1342.83V242.144H1316.63V147.3H1271.57V242.144H1245.1ZM1435.47 242.144V121.1H1461.94V242.144H1435.47ZM1435.47 100.14V73.678H1461.94V100.14H1435.47ZM1522.56 242.144V218.564H1498.98V147.3H1475.14V121.1H1498.98V73.678H1525.18V121.1H1596.97V147.3H1525.18V215.944H1594.35V192.102H1620.81V218.564H1596.97V242.144H1522.56ZM1636.86 242.144V73.678H1663.32V144.942H1684.28V121.1H1734.58V144.942H1758.69V242.144H1731.96V147.3H1686.9V170.88H1663.32V242.144H1636.86Z" fill="white"/>
<path d="M222.246 251.934C227.085 257.773 235.811 258.634 241.046 253.147C253.193 240.417 262.369 225.076 267.827 208.226C273.286 191.376 274.848 173.569 272.473 156.134C271.449 148.62 263.876 144.201 256.532 146.093V146.093C249.188 147.986 244.881 155.481 245.636 163.027C246.871 175.364 245.551 187.874 241.7 199.762C237.849 211.651 231.583 222.559 223.349 231.828C218.312 237.498 217.406 246.095 222.246 251.934V251.934Z" fill="white"/>
<path d="M98.9264 258.722C94.7571 265.057 96.4848 273.653 103.263 277.055C118.988 284.949 136.341 289.239 154.051 289.533C171.761 289.826 189.247 286.114 205.225 278.745C212.112 275.569 214.124 267.035 210.167 260.565V260.565C206.21 254.095 197.783 252.168 190.787 255.097C179.351 259.884 167.001 262.279 154.506 262.072C142.011 261.865 129.748 259.062 118.477 253.898C111.582 250.739 103.096 252.386 98.9264 258.722V258.722Z" fill="white"/>
<path d="M55.4213 146.27C48.0738 144.39 40.5085 148.822 39.4981 156.339C37.1539 173.778 38.7474 191.582 44.2357 208.422C49.7239 225.263 58.9269 240.587 71.0961 253.296C76.3412 258.774 85.0654 257.898 89.8945 252.05V252.05C94.7236 246.202 93.8025 237.607 88.7557 231.946C80.5054 222.691 74.2203 211.794 70.3482 199.912C66.476 188.031 65.1337 175.523 66.3468 163.185C67.0889 155.637 62.7687 148.149 55.4213 146.27V146.27Z" fill="#777777"/>
<path d="M149.389 68.3932C148.906 60.8246 142.353 54.9991 134.892 56.3609C117.583 59.5203 101.142 66.5377 86.8219 76.9613C72.5016 87.3849 60.7711 100.873 52.4446 116.374C48.8558 123.055 52.3853 131.081 59.4392 133.867V133.867C66.4931 136.653 74.383 133.121 78.2075 126.571C84.4597 115.865 92.8811 106.52 102.985 99.1661C113.088 91.8118 124.569 86.6701 136.678 84.0109C144.086 82.3843 149.872 75.9619 149.389 68.3932V68.3932Z" fill="#777777"/>
<path d="M252.493 133.698C259.542 130.899 263.057 122.867 259.456 116.192C251.102 100.706 239.348 87.2386 225.009 76.8403C210.671 66.442 194.218 59.4536 176.903 56.3247C169.44 54.9761 162.897 60.8131 162.427 68.3826V68.3826C161.958 75.9521 167.755 82.3644 175.165 83.9779C187.28 86.6156 198.77 91.7371 208.886 99.0735C219.002 106.41 227.44 115.74 233.711 126.435C237.547 132.977 245.444 136.496 252.493 133.698V133.698Z" fill="white"/>
</g>
<defs>
<clipPath id="clip0_130_32">
<rect width="1814" height="327" fill="white"/>
</clipPath>
</defs>
</svg>
